<svg id="Слой_1" data-name="Слой 1" xmlns="http://www.w3.org/2000/svg" viewBox="0 0 1826.507 1065.84"><defs><style>.cls-1{fill:#447bd4;opacity:0.66;}</style></defs><path class="cls-1" d="M1620.607,19.078c-4.1,1.3-7.8,2.2-8.3,1.9a.466.466,0,0,0-.8.4c0,.5-2.1,1.5-4.7,2.2-6.8,1.9-13.3,5-13.3,6.5,0,.6-1.8,1.9-4.1,2.8s-3.8,2.1-3.4,2.7c.3.5.1,1-.6,1-1.7,0-17.5,16.6-19,20-.7,1.6-1.6,2.7-1.9,2.5s-2.1,2.5-4,6.1c-1.8,3.5-3.7,6.4-4,6.4-.4,0-1,.8-1.4,1.7-.7,2.2-3.1,6.2-7.2,12.3-1.6,2.5-3.5,5.6-4.2,7a35.447,35.447,0,0,1-2.1,4c-.6.8-3,5.8-5.5,11-2.4,5.2-8.3,17.5-13,27.2-4.7,9.8-8.6,18-8.6,18.3,0,.2-1.1,2.8-2.4,5.7s-3.1,7.4-3.9,9.9c-.9,2.6-3.1,8-5,12-3,6.6-5.5,12.2-11.8,26.6a27.329,27.329,0,0,0-1.9,4.9c0,.3-1.4,3.8-3.1,7.7-4.6,10.9-10.2,24.1-15.2,35.7-7.1,16.6-12.4,29.3-13.2,31.9-.4,1.3-3.1,7.4-6.1,13.7-3,6.2-5.4,11.5-5.4,11.8,0,.2-2.5,5.8-5.6,12.3-6.8,14.4-8.5,18.1-12,25.8-3.2,7.2-17.3,35.6-21.8,44-1.8,3.3-5.8,10.9-9.1,17-9.4,17.6-26.9,46.6-28.7,47.3a1.3,1.3,0,0,0-.8,1.2c0,1.1-9.9,16.2-11.5,17.5a32.321,32.321,0,0,0-4.3,5.8c-1.8,2.6-3.6,5.3-4.2,6-.6.6-4.4,5.5-8.6,10.7a306.865,306.865,0,0,1-32.8,34.5c-3.8,3.3-8,7-9.4,8.3a47.35,47.35,0,0,1-5.9,4.3c-1.8,1.1-3.3,2.5-3.3,3a1.018,1.018,0,0,1-1.1.9c-.6,0-3.6,1.8-6.8,4-3.1,2.2-6.1,4-6.6,4a5.142,5.142,0,0,0-2.4,1.4c-1.3,1.2-26.4,14.4-29.3,15.4-1.6.6-8.4,3.3-10.3,4.2a38.1,38.1,0,0,1-4.7,1.4,39.2,39.2,0,0,0-5.5,1.8,25.91,25.91,0,0,1-4.3,1.4c-7.6,1.3-18.1,3.5-20.7,4.3-6.5,1.9-30.8,2.8-45.3,1.7-5.2-.4-11.4-.9-13.7-1.1a16.654,16.654,0,0,1-5-.8,27.486,27.486,0,0,0-5.8-1.2c-2.7-.4-6.1-.9-7.5-1.1-1.4-.3-5-.9-8-1.4-11.6-2-20.8-3.7-21.6-4.3a32.526,32.526,0,0,0-5.7-1.1,44.616,44.616,0,0,1-7.5-1.7c-2.2-.9-10.6-3.2-19.2-5.4-.8-.2-6.9-2-13.5-4s-13.3-4.1-15-4.5c-7.1-2-8.1-2.3-9-3.1-.5-.4-3.8-1.3-7.2-2s-6-1.5-5.8-1.9c.2-.3-.4-.7-1.3-.7-.9-.1-5.6-1.3-10.4-2.6-4.8-1.4-8.9-2.2-9.2-1.9s-.6,0-.6-.6c0-.7-.9-1.2-1.9-1.2a48.159,48.159,0,0,1-7.8-1.4c-3.2-.8-7.6-1.7-9.8-2a89.165,89.165,0,0,1-8.9-1.6,101.08,101.08,0,0,0-10.5-1.6c-3.1-.3-9.4-.9-14.1-1.4-11.3-1.3-29.6-1.5-39.5-.5a89.759,89.759,0,0,1-10.7.7c-1.6-.1-2.8.2-2.8.6s-1.4.7-3.1.8a36.6,36.6,0,0,0-6.7,1.2c-2,.7-6.6,2-10.2,3.1-3.6,1-8.8,2.8-11.6,3.9-5.9,2.4-20.7,10.9-21.2,12.3a2,2,0,0,1-1.8.9c-.8,0-1.4.5-1.4,1,0,.6-1,1.4-2.2,1.9-7.1,2.8-40.1,34.9-60.8,59.1-3,3.6-7.5,8.7-10,11.5-9.5,10.5-16.8,18.9-24.1,27.6-18.9,22.5-22.4,26.5-24,28.1a5.91,5.91,0,0,0-1.9,2.2c0,.4-1.8,2.5-3.9,4.6-2.2,2.2-3.8,4-3.5,4,.4,0,.7-.3-13.2,14.1-10.5,10.9-27.8,27.2-32.9,31.1a22.51,22.51,0,0,0-3.6,3.1,13.414,13.414,0,0,1-3.1,2.5c-14.2,9.4-17.4,11.7-18.3,12.6-1.1,1.2-5.8,3.7-22,11.9-5.5,2.7-10.1,5.4-10.3,5.9a3.1,3.1,0,0,1-2.3.8,15.206,15.206,0,0,0-5,1.5c-7.6,4-43.8,14.5-49.8,14.5a69.986,69.986,0,0,0-9.6,1.4c-3.8.8-9.1,1.7-11.7,2a26.733,26.733,0,0,0-5.5.9c-.5.3-4.8.8-9.8,1.2a93.671,93.671,0,0,0-9.5,1c-.6.4-11.5,1.1-32.5,2-6.6.3-13.1.7-14.5,1-1.4.2-7,.7-12.5,1-5.5.4-11.6.9-13.5,1-1.9.2-8.9.9-15.5,1.6-20.3,2-24.4,2.5-37.5,4.9-5.8,1.1-12.7,2.4-15.5,3-2.7.6-5.9,1.2-7,1.5a54.909,54.909,0,0,0-5.4,1.4c-1.9.6-3.8.8-4.2.5a.552.552,0,0,0-.9.5c0,.6-.3,1-.7.9-1.3-.4-11.7,2.4-13,3.5-.9.6-1.3.6-1.3-.3s-.5-.8-1.8.3a8.261,8.261,0,0,1-4.5,1.9c-1.5.1-2.7.6-2.7,1s-2,1-4.5,1.4c-2.5.3-4.5,1-4.5,1.5s-.6.9-1.4.9c-.7,0-4.6,1.8-8.7,3.9s-11.4,6-16.4,8.6c-4.9,2.6-10.4,5.8-12.2,7.1a13.659,13.659,0,0,1-4.1,2.4,6.184,6.184,0,0,0-2.7,2c-1,1.1-2.3,2-3,2s-2.5,1.1-4.1,2.5a12.58,12.58,0,0,1-3.6,2.5,5.775,5.775,0,0,0-2.5,1.5c-4.9,4.3-9.1,7.5-9.7,7.5a8.133,8.133,0,0,0-2.9,2.3c-1.2,1.2-4.8,4.4-8.1,7.1-3.2,2.7-7.5,6.5-9.5,8.4-4.8,4.5-11.7,10.8-23.6,21.7-5.5,4.9-25.5,24.4-44.5,43.1-19,18.8-37,36.4-40,39.1s-9.2,8.5-13.6,12.8c-14.7,14.4-24.7,23.3-34.5,30.7-5.2,4-11.3,8.7-13.5,10.5-4.9,4-17.9,13.5-26.4,19.4-3.6,2.4-6.7,4.7-7,5a14.5,14.5,0,0,1-2.5,1.7c-1.5.9,230.1,1.1,912.3,1.2h914.2v-964.8l-3.7-2.3c-2.1-1.3-5.6-3.8-7.9-5.6s-4.6-3.3-5.2-3.3a1.486,1.486,0,0,1-1.4-.8c-.1-.4-2.8-2.5-5.8-4.7-5.1-3.7-13.6-10.3-18.6-14.5-1.1-.9-4.9-3.7-8.5-6.1-3.5-2.4-6.6-4.7-6.9-5a62.379,62.379,0,0,0-6-4c-3-1.8-5.7-3.6-6-3.9a24.723,24.723,0,0,0-4-2.6,31.493,31.493,0,0,1-5.4-3.7,7.388,7.388,0,0,0-3.3-1.7,1.233,1.233,0,0,1-1.3-1,1,1,0,0,0-1-1c-.6,0-4.5-2.3-8.8-5.2-11.6-7.8-12.2-8.1-19.7-12-3.8-1.9-10.6-5.4-14.9-7.7-4.4-2.2-8.7-4.1-9.5-4.1a17.412,17.412,0,0,1-5.4-2,19.008,19.008,0,0,0-4.6-2,13.836,13.836,0,0,1-3.3-.9,13.387,13.387,0,0,0-3.2-.9,2.018,2.018,0,0,1-1.5-1.1c-.4-.6-2-1.2-3.7-1.4a14.69,14.69,0,0,1-4.2-1.1,2.453,2.453,0,0,0-2.2-.1,2.453,2.453,0,0,1-2.2-.1c-1.4-.9-2.9-1.1-10.8-1.8-3-.2-6.4,0-7.6.5-1.5.5-2.4.4-2.6-.3-.3-.8-1.3-.8-3.8.1-2.3.8-3.6.8-3.8.1C1629.207,16.278,1629.207,16.278,1620.607,19.078Z" transform="translate(0 -16.738)"/></svg>