<svg id="Слой_1" data-name="Слой 1" xmlns="http://www.w3.org/2000/svg" viewBox="0 0 2258.353 1995.3"><defs><style>.cls-1{fill:#f78334;}.cls-2{fill:#dd2c5b;}.cls-3{fill:#3b95e0;}.cls-4{fill:#edb61d;}.cls-5{fill:#bc54e2;}.cls-6{fill:#9ad337;}</style></defs><path class="cls-1" d="M913.5,80.1c-17.3,2.5-42,16.4-62.4,35.1l-5.9,5.4-7.1-6.9C826,102,810.2,92.8,795.8,89.3c-8.3-2-23.9-2.2-31.3-.4-21.3,5.2-37.2,21.3-43.1,43.8-2.9,11-2.9,29.7,0,40.8,2.8,10.6,11.4,27.8,19.8,39.4,13,18.1,38.2,42.4,63.9,61.8,16,12,45,31.3,56.1,37.1,1.9,1,3.3.3,12-6,32.5-23.5,63.2-53.9,80.5-79.7,21.8-32.6,29.1-63.2,21.9-91.3-8-31-24.5-50.8-45.5-54.7C923.5,78.9,921.5,78.9,913.5,80.1Zm25.1,7.3c14.1,6.6,24.5,21.5,32.1,45.6,2,6.6,2.3,9.4,2.2,23.5,0,14.4-.3,16.9-2.7,25-7.7,25.8-26.2,53.9-53.6,81.3C899.3,280,866.5,307,862.8,307c-1.6,0-21.4-12.2-35.3-21.8-47-32.4-80.1-65.7-94.5-94.7-7.8-15.6-9-21-9-38.5.1-13.2.3-15.2,2.9-22.5,8.9-25.6,29-38.8,56.4-37.2,19.8,1.2,37.3,10,54.6,27.5l6.9,7,10.1-9C872.6,102,892.6,90,908.7,85.5,917.2,83.1,931.6,84,938.6,87.4Z" transform="translate(-5.2 -79.2)"/><path class="cls-1" d="M1992.1,80a61.292,61.292,0,0,0-12.2,4.4c-14.9,7.4-26.6,25.3-33.6,51.6-3.1,11.4-2.9,30.4.5,43.1,5.8,22,15.2,39.8,33.5,62.9,15.5,19.6,48.3,49.8,71.7,65.9l7.3,5.1,11.8-7.2c61-36.7,107.5-80.4,124-116.5,6-13.1,7.7-21,7.8-36.3,0-11.1-.4-14.9-2.3-21.5-2.9-10.2-7.3-18.4-13.6-25.3-25.4-27.9-71.3-24.3-103.4,8.2l-6.4,6.5-7.6-7c-16.1-14.7-39.4-28.8-53.6-32.3C2007.9,79.6,1998.1,78.9,1992.1,80Zm20.9,5.5c17.8,4.7,36.4,15.9,56,33.9l8.3,7.5,8.3-8.3c17.9-17.7,37.2-26.6,57.7-26.6,15.7,0,28.4,5.1,38.7,15.5,11.4,11.5,16.5,25.4,16.5,45.3,0,17-3.8,29.8-13.6,46-15.3,25.3-47.5,56.7-84.7,82.5-17.1,12-38.9,25.7-40.7,25.7-4.2-.1-37.4-27.6-55.6-46.2-26.6-27.2-41.7-49.7-49.8-73.9-4.6-13.6-6-23-5.3-35.4,1.5-25.9,15.9-54.4,31.7-62.5A45.116,45.116,0,0,1,2013,85.5Z" transform="translate(-5.2 -79.2)"/><path class="cls-2" d="M204.9,258.1c-7.8,8.3-25,17.8-39.4,21.8-16.8,4.6-40.8,6.9-56.8,5.3l-8.3-.8-.5,2.6c-1.1,5.3-5.7,17.7-8.1,22-10.5,18.5-32.5,34.7-56,41.2l-8.2,2.3.7,4c1.5,8.4.8,38.6-1.2,49C24.5,419.8,17.6,439.9,11,453L5.2,464.3l.7,9.7C9.7,533.1,49,587.7,108,616c5.5,2.6,12.8,5.8,16.3,7,3.4,1.3,6.2,2.5,6.2,2.7,0,.3-10.4,18.8-23,41.2l-23,40.8-5.8-2c-16.2-5.5-35.2,3.3-42.9,19.8-2.4,5.1-2.8,7.2-2.8,14.5.1,7,.5,9.5,2.7,14.2a37.925,37.925,0,0,0,17.7,18.1c5.8,2.8,7.5,3.2,15.1,3.2s9.3-.4,15.1-3.2a37.925,37.925,0,0,0,17.7-18.1c2.2-4.7,2.6-7.2,2.7-14.2,0-7.6-.3-9.2-3.2-15.1A41.121,41.121,0,0,0,93,714.1l-4.6-4.2,23.2-41.2c12.8-22.7,23.3-41.3,23.5-41.5.1-.2,5.6,1,12.3,2.7,21,5.3,32.1,6.5,58.1,6.6,25.2,0,37-1.3,56.4-6,5.5-1.4,10.1-2.3,10.3-2.1s10.7,18.5,23.2,40.7l22.8,40.4-5.4,5.7c-7.9,8.4-9.8,13.2-9.8,24.8.1,11.5,2,16.5,9.5,24.4,7.4,7.8,15,11,26,11.1,7.7,0,9.2-.3,15.2-3.3,12.9-6.3,20.1-17.9,20.1-32.2a33.53,33.53,0,0,0-2.2-13.2c-6.6-16.9-26.8-26.7-43.4-21.1l-5.8,2-2.4-4.1c-1.3-2.3-11.6-20.5-22.9-40.6l-20.5-36.4,9.2-3.3c67.2-24,116.1-85,119.4-149.1l.6-12.2h-9.1c-5.1,0-9.2-.2-9.2-.5,0-.2,19.2-24.6,42.6-54.2l42.5-53.8-5.3-2.5c-4.8-2.3-6.4-2.5-18.3-2.4-10,0-14.3.5-18.7,2l-5.7,1.9-42.8,52c-23.5,28.6-43.8,53.3-44.9,54.8l-2.2,2.7H184.3l.7-12.8c3.5-69.9,11.2-136.4,21.1-182.1,1.3-6.3,2.3-11.6,2.1-11.7C208,255.2,206.5,256.4,204.9,258.1Zm-6.5,24.6c-7.7,41.4-14.2,97.8-16.9,147.8-.6,11-1.2,20.4-1.3,20.8-.2.7-71.1-153.9-73.4-160-.4-1,2.4-1.3,14.7-1.3,17,0,31.7-1.8,44.8-5.6,9.2-2.6,24.4-9.5,30.2-13.8a29.427,29.427,0,0,1,4.1-2.6C200.9,268,199.9,274.6,198.4,282.7Zm-57,95.7c19.3,42.4,35,77,34.8,77.1-.1.1-31.8-22.4-70.4-50L35.5,355.2l7.8-2.7c15.4-5.4,32.2-16.1,41.7-26.7,6-6.7,12.8-17.9,15.6-25.7l2.3-6.4,1.7,3.9c.9,2.1,17.5,38.5,36.8,80.8Zm320.5-24.6c1.4.4,2.6,1.1,2.7,1.5.1.5-18.7,24.7-41.7,53.8L381,462H340.3l4.4-5.3c2.4-2.8,22.1-26.7,43.7-52.9,36.7-44.6,39.5-47.8,43.4-48.9,9.7-2.7,22.5-3.1,30.1-1.1ZM104.7,410.1c38.7,27.6,70.7,50.6,71.3,51,.5.5-35.4.9-81.7.9H11.6L17,450.7c12.2-25.4,18.6-56.3,16.8-81.5-.3-5-.3-9.2,0-9.2S66,382.6,104.7,410.1Zm294.4,65.6c-3.1,38.2-20.6,73.8-50.2,102.3-23.3,22.5-43.1,33.9-78.9,45.4-18,5.8-39.7,8.6-65,8.6-28.6,0-51.3-3.5-75-11.7C66.8,598.4,21,546.2,12.1,485.7a135.472,135.472,0,0,1-1.6-14.6V467H399.8ZM83.3,712.5a31.384,31.384,0,0,1,13.4,13.8c1.9,3.5,2.3,5.8,2.3,13.7s-.4,10.2-2.3,13.7a31.617,31.617,0,0,1-13.4,13.9c-4.8,2.6-6.2,2.9-14.8,2.9-7.9,0-10.2-.4-13.7-2.3-10.6-5.6-16.3-14.2-17.1-25.6-.5-8.6.8-13.9,5.1-20.3,3.3-5,10.7-10.6,16.1-12.3,1.7-.5,6.7-.8,11.1-.7C76.6,709.6,78.9,710.1,83.3,712.5Zm269.1-.6c19.2,9.9,22.9,35.6,7.4,50.8-14.3,13.9-40.3,9.6-49.1-8-8.2-16.4-2-35,14.3-42.9,5.5-2.7,6.7-2.9,14.5-2.5,6.3.2,9.6.9,12.9,2.6Z" transform="translate(-5.2 -79.2)"/><path class="cls-2" d="M62.7,722.1c-7.8,2.4-14.2,12.8-12.7,20.8,3.1,16.7,24.1,21.2,34,7.2C93.8,736.2,79.3,717.1,62.7,722.1Zm12.7,5.7c11.8,6.3,7.8,24.7-5.6,25.9-6,.5-10.9-1.9-13.5-6.8A14.079,14.079,0,0,1,68.5,726,17.256,17.256,0,0,1,75.4,727.8Z" transform="translate(-5.2 -79.2)"/><path class="cls-2" d="M332.2,722.5a17.764,17.764,0,0,0-10.8,10c-6.3,13.7,6.3,29.2,20.8,25.5,6.1-1.5,8.9-3.5,11.8-8.5,4.6-7.8,2.5-19.5-4.2-24.3-3.3-2.3-8.8-4.2-11.7-4.2A26.7,26.7,0,0,0,332.2,722.5Zm14.9,6.6c5.6,5.2,6.9,11.9,3.4,17.7-7.5,12.3-26,7.6-26-6.6,0-9.1,5.8-14.6,14.8-13.9C343.1,726.6,345.2,727.3,347.1,729.1Z" transform="translate(-5.2 -79.2)"/><path class="cls-2" d="M1519.9,258.6c8.4,33.3,18.5,111.4,21.6,166.4.5,10.2,1.2,22.7,1.6,27.7l.5,9.3-75.3-.1H1393L1348,407l-45-54.8-6-1.8c-4.4-1.4-9.3-1.9-18.5-1.9-11.3,0-13,.2-17.9,2.5l-5.4,2.5,42.8,54,42.7,54-9.2.3-9.3.3.6,11.7c1.1,24.4,9.4,50.3,23.5,73,21.5,34.6,56.4,62.4,95.9,76.5l9.1,3.3-13.5,23.9c-7.4,13.2-17.7,31.5-22.9,40.6l-9.4,16.6-5.7-2c-16.3-5.5-35.3,3.4-43.1,20.1-2.2,4.8-2.7,7.1-2.7,14.2s.5,9.4,2.7,14.2a37.92,37.92,0,0,0,17.7,18.1c5.9,2.9,7.5,3.2,15.1,3.2,7.1,0,9.5-.5,14.2-2.7a38.519,38.519,0,0,0,18.4-18.1c2.5-5.3,2.9-7.5,2.9-14.7s-.4-9.4-2.8-14.5a45.539,45.539,0,0,0-7.7-11l-4.9-5,22.8-40.2c12.5-22.2,22.9-40.5,23.2-40.7.2-.2,4.7.6,9.9,1.9,19.5,4.7,31.9,6,57,5.9,25.9,0,37.4-1.3,58-6.5,6.6-1.7,11.8-2.5,12.3-2s11.1,19.1,23.7,41.2l22.8,40.4-5.4,5.7c-6.5,6.8-9.4,13-10.1,21.9-1.3,15.1,7,29,21.2,35.6,5.1,2.3,7.3,2.8,14.5,2.8,7.6,0,9.2-.3,15.1-3.2a37.925,37.925,0,0,0,17.7-18.1c2.2-4.8,2.7-7.1,2.7-14.2s-.5-9.4-2.7-14.2c-7.8-16.7-26.8-25.6-43.1-20.1l-5.8,2-10.8-19.1c-30.7-54.4-35.4-63-34.6-63.3.6-.2,6.6-2.7,13.5-5.6,62.9-26.4,106.3-83.5,110.6-145.7l.6-9.5-6-12a180.384,180.384,0,0,1-15.3-43.5c-1.8-8.5-2.2-14-2.3-28.5-.1-9.9.1-20.2.4-22.9l.4-4.8-10-3.3c-32.7-10.7-54-31.2-60.9-58.6l-1.6-6.5-9.2.8c-16,1.4-37-.4-53.6-4.8-15.3-4-32.9-13.2-40.5-21.3C1520.5,255.3,1519.1,255.1,1519.9,258.6Zm10.9,11.8c4.5,3.5,18,10,25.9,12.6,14.4,4.6,24.5,6.1,45.1,6.7,10.9.3,19.7.9,19.5,1.3-1.1,3-73.3,160.9-73.4,160.7-.1-.1-.7-8.8-1.3-19.2-2.5-42-5.9-76.5-11.2-112.8-2.8-19.5-7.3-46-8.5-50C1526.2,267.4,1527,267.5,1530.8,270.4ZM1634,314.1c9.1,15,28,29.7,48.5,37.7l9.6,3.7-69.9,49.8c-38.4,27.4-70,49.7-70.2,49.5-.1-.2,16.2-36.4,36.3-80.5l36.6-80.2,2.6,6.8A115.127,115.127,0,0,0,1634,314.1ZM1286,353c14.4,2.1,11-1,46.1,41.7,17.6,21.3,37.2,45.2,43.7,53l11.7,14.3h-40.6l-42.2-53.2c-23.2-29.3-41.8-53.6-41.4-54,.7-.7,9.7-2.5,13.7-2.7C1278.1,352.1,1282.2,352.5,1286,353Zm408,16.7c-1.8,24.8,5.3,58.2,17.4,82.5l4.9,9.8h-82.6c-45.4,0-82.2-.3-81.8-.7,1.6-1.7,141.2-101.2,141.9-101.2C1694.3,360,1694.4,364.4,1694,369.7Zm23.1,105.5c-4.9,57.9-43.5,110.9-99.9,137.3-28.7,13.4-58.3,19.5-94.2,19.5-25,0-46.7-2.8-64.5-8.5-17-5.4-22-7.3-34.5-13.6-54.3-27-90.8-78.5-95.1-134.2l-.7-8.7h389.6Zm-315,236.2c7.2,3.4,11.9,7.8,15.4,14.8,2.6,5.2,3,7.2,3,13.8s-.4,8.6-3,13.8a31.175,31.175,0,0,1-14.3,14.4c-3.5,1.9-5.8,2.3-13.7,2.3-8.7,0-10-.3-14.9-3a30.63,30.63,0,0,1-14.1-16.2,37.7,37.7,0,0,1-1-20.5c2.4-8.6,11.9-18.3,20.4-20.7C1386.2,708.2,1396.6,708.9,1402.1,711.4Zm272.3,1.1c23,12.6,20.8,47.3-3.6,56.5-8.2,3.1-18.8,2.5-26.2-1.5a31.115,31.115,0,0,1-13.5-40.4,30.648,30.648,0,0,1,15.8-15.7c4.4-2.2,6.2-2.5,13.6-2.2,7.1.3,9.4.9,13.9,3.3Z" transform="translate(-5.2 -79.2)"/><path class="cls-2" d="M1383.7,722.1c-4.9,1.5-10.7,7.7-12.1,13.2-3.4,13.7,9.3,26.4,22.8,22.7,5.5-1.5,11.6-7.6,13.1-13.1a18.69,18.69,0,0,0-12.8-22.9C1390.3,720.8,1388.2,720.8,1383.7,722.1Zm12.7,5.7c9.3,5,9.3,19.3,0,24.4a13.722,13.722,0,0,1-16.7-2.6c-3.4-3.3-3.7-4.1-3.7-9.4,0-4.1.5-6.4,2-8.4a14.406,14.406,0,0,1,18.4-4Z" transform="translate(-5.2 -79.2)"/><path class="cls-2" d="M1653.2,722.4a18.215,18.215,0,0,0-10.8,10.1c-3.3,7.1-1.8,14.9,4,20.6a18.675,18.675,0,0,0,24.3,1.8c4-2.9,7.1-9.5,7.2-15C1677.9,727.4,1664.8,718.1,1653.2,722.4Zm14.9,6.7c5.6,5.2,6.9,11.9,3.4,17.7a14.1,14.1,0,0,1-18.6,5.6c-9.7-4.6-9.8-19.9-.1-24.8,4.5-2.3,12-1.6,15.3,1.5Z" transform="translate(-5.2 -79.2)"/><path class="cls-3" d="M799.4,610.6c-6.3,1.9-13.1,8.1-16,14.6-1.9,4.4-2.4,7.4-2.7,17.3-.4,13.8,1.6,26,7.2,42.6l3.3,9.9h-6.1a110.442,110.442,0,0,1-12.6-1c-3.6-.5-10.7-1-15.9-1.1-8.5,0-9.9.2-15.6,3-3.7,1.8-9.1,5.9-13.5,10.1-12,11.7-16.2,12.8-32.7,8.9-11.1-2.7-18.4-2.1-26.9,2.1-7.2,3.5-9.7,5.9-8.4,8,.8,1.3,1.3,1.3,3,.2,11.1-6.9,17.6-8.1,31.1-5.9,12.8,2.1,19.9,2.2,24.5.2,1.9-.8,7.4-5.2,12.2-9.8,12.4-11.9,13.1-12.2,27.7-12,6.6.1,16.3.5,21.5,1l9.5.8-7,4.9C724.6,745,674.3,816.7,662.5,874.7A178.417,178.417,0,0,0,697,1019.5a208.822,208.822,0,0,0,17.3,18.6c53.4,51.2,132.8,63.4,199.9,30.8,48-23.4,83.8-69.3,95.1-121.9,15.9-74-16.9-150-81.5-188.8-4.4-2.6-33.7-16.7-65.2-31.2l-57.2-26.4,7.8-1.3c29.9-5.1,68-19.2,80.1-29.9,6-5.3,8.2-8.9,8.2-13.6,0-7.1-9-14.8-19-16.3-13.7-2-35.2,8.2-59,28.1l-9.1,7.5L818,668a181.54,181.54,0,0,0,7.2-17.8c3-9,3.6-12.2,3.7-19.7.1-11.2-1.9-15.8-8.4-19.2C815.4,608.6,806.7,608.3,799.4,610.6Zm16.2,3.4c12.3,3.4,12.4,20.7.2,48.5-4.6,10.5-13.3,25.3-17.1,28.9l-3,2.8-3.5-10.8C786.8,666.7,785,657,785,644c0-10.8.2-11.9,3-17.5,3.5-6.9,8.6-11.1,15.5-12.4,6.2-1.2,8-1.2,12.1-.1ZM888,645.9c4.3,1.9,9.5,7.3,9.5,9.7,0,5.7-8.7,13.3-22.8,20.1-16.8,8-51.8,18.3-68.1,20.1l-5.5.5,2.2-3.1c3.5-4.9,20.8-20.7,31.4-28.7,23.4-17.7,41.4-24,53.3-18.6ZM798.2,722c-.3,3.2-1.7,6.6-5,12-5.4,8.6-5.9,12.8-2.8,22.9l1.9,6.1-2.1,1.5a8.564,8.564,0,0,1-3.4,1.5c-1.3,0-1.8,3.1-.7,4.2,1,1,7.3-1.5,9.4-3.7l2.1-2.2-2.7-7.9c-3.4-10.3-3-13.5,3.5-23.1,6-8.9,6.4-11.7,2.6-22.5-1.4-3.9-2.3-7.3-2-7.6s95.7,43,97.2,44.2c.1.1-1.4,4.8-3.3,10.5-12.1,36.1-33.6,62.9-60.4,75.4-15.2,7.1-20.1,8.2-38,8.2-17,0-24-1.4-39.7-7.6-15.6-6.1-36.7-19.6-49-31.2l-5.3-5,7.7-11.1c20.9-30.5,47.4-57.8,75.9-78.1l8.9-6.4,2.8,7.7C797.7,715.2,798.4,718.8,798.2,722ZM914,755.8c47.1,23.5,80.1,66.8,91.7,120.2,1.9,9.2,2.2,13.4,2.3,33.5,0,20.4-.3,24.2-2.3,33.8-10.6,49-40.3,90.8-81.8,115.3a173.192,173.192,0,0,1-188.4-8.4c-11.4-8-29.4-25.7-37.6-36.7a181.8,181.8,0,0,1-32.2-75c-2.6-14.2-2.3-45.6.6-60.3,4.1-20.4,11.5-39.9,23.7-62.2,3.2-5.8,6.2-11.2,6.9-12.1,1-1.5,2.2-.8,10.1,5.8,21.7,18,44.7,30,67.1,34.9,11.9,2.5,30.5,2.4,41.8-.4,11.1-2.8,25.7-9.6,34.6-16.2,19.4-14.4,36.4-39,45.9-66.5,1.7-5,3.4-9.6,3.6-10.3C900.6,749.5,902.8,750.2,914,755.8Z" transform="translate(-5.2 -79.2)"/><path class="cls-3" d="M846.4,877c-5.6,3.5-11.6,10.3-12.4,14.2-.6,2.3-.9,2.7-2.1,1.7-.8-.6-1.4-2.7-1.4-4.5,0-4.3-1.1-4.3-4.4,0-3.9,5.2-5.3,11.5-3.5,16.1l1.4,3.8-6.3,6.3c-19.5,19.5-19.9,49.7-.8,70.1a51.708,51.708,0,0,0,28.8,15.3c21.2,3.6,43.7-8.2,52.9-27.7,2.5-5.4,3.9-7.3,5.4-7.3,6.1-.1,19.6-9.6,23.1-16.2,2.2-4.3,1.8-8.5-1.1-10.4-2.1-1.4-4.2-1.6-11.3-1.1a79.661,79.661,0,0,0-10.3,1.1c-1.2.5-1.9-.3-2.8-3.6-5.4-17.8-22.1-32.1-40.5-34.7-7.3-1-10.5-3.1-13.2-8.3-2.1-4.1-1.7-8.4,1.2-12.8,1.5-2.2,2.5-4.2,2.3-4.5C851.1,874.3,848.9,875.4,846.4,877Zm4,24.7A13.806,13.806,0,0,0,857,904c4.1,0,12.8,2.6,18.9,5.7,7,3.5,14.7,11.6,18.3,19.3,4.9,10.1,5,10.7,1.1,12.3-4.7,2-7,5-7.5,10-.6,5.4,1.5,10.1,5.7,12.2,1.7.9,3,2.1,3,2.8,0,2.5-6.4,12.2-11.1,16.9a49.529,49.529,0,0,1-12.7,8.6c-7.5,3.6-8,3.7-19.2,3.7s-11.7-.1-19.3-3.7a46.433,46.433,0,0,1-22.5-22.5c-3.6-7.6-3.7-8.1-3.7-19.3s.1-11.7,3.7-19.2c3.4-7.2,10.1-15.3,15.5-18.9,2.1-1.3,2.1-1.6.8-5.4-1.6-4.2-2-9.7-.8-10.8.3-.4,1.6.2,2.8,1.3a11.5,11.5,0,0,0,5.3,2.6c3.2.6,3.2.6,3.2-3.4a17.685,17.685,0,0,1,1.2-6.6c1.1-2.5,1.2-2.4,4.2,3.6C845.8,897.1,848.3,900.3,850.4,901.7Zm73,40.2c3.2,2.1-4.1,11.7-11.8,15.5-9.5,4.8-17,4.2-19-1.4-1.5-4.5,0-8.2,4.1-10.3C903.9,942.2,920.1,939.8,923.4,941.9Z" transform="translate(-5.2 -79.2)"/><path class="cls-3" d="M859,932.6c-1.9,2-2.5,3.8-2.5,7.2,0,12,12.7,17.6,17.5,7.7,1.9-4.2,1.9-6.8-.1-11.1C870.6,929.5,863.5,927.8,859,932.6Z" transform="translate(-5.2 -79.2)"/><path class="cls-3" d="M2103.5,610.1c-14.1,5.6-14.1,26,0,56.6l3.8,8.1-9.6-8.1c-18.3-15.4-34.9-24.5-48.8-26.8-9.2-1.6-16.6.4-22.9,6.2-12.3,11.3-3.2,23.9,26.5,36.6,16.1,6.9,39.5,13.7,57.4,16.7l6.9,1.1-52.9,24.4c-29.1,13.4-56.7,26.4-61.4,28.9a175.337,175.337,0,0,0-84.1,99.2c-12.5,37.5-12.6,75.9-.3,113,19.4,58.3,69.8,103.7,129.9,116.9,31.3,6.8,65.7,4.9,95.6-5.5,69.2-23.9,115.7-86.3,119.5-160.4,1.1-20.6-2.9-46.6-10.2-67-7.3-20.1-23.5-50-38.1-70.4-20.6-28.6-43.2-51.8-69.5-71.4l-11.7-8.7,9.7-.9c5.3-.4,14.9-.9,21.2-1,14-.1,16.1.8,27.2,11.8,12,12,16.5,13.2,36.6,9.9,12.5-2,19.9-1,27.6,3.7,7.2,4.5,10.7,2.5,4.3-2.4-9.4-7.1-18.7-8.8-32.7-5.7-17,3.8-20.2,2.9-32.4-8.6-12.7-12-19.7-14.6-35.1-13.2-18.4,1.8-28.5,2.2-28.5,1.2,0-.5,1.4-4.9,3-9.9,7.2-21.2,9.4-43.8,5.5-55.9-2.7-8.3-9.9-15.7-17.4-17.9C2116.5,608.8,2107.3,608.6,2103.5,610.1Zm20.5,5.8c4.5,2,8.7,6.5,11.2,12,2.5,5.3,2.4,26.9-.1,37.6-1.7,7.4-7.3,26-8.3,27.7-.2.5-2.6-1.8-5.4-4.9-5.6-6.5-16.4-27.3-20.5-39.8-4.6-13.9-4.3-27.5.6-32,4.1-3.7,14.6-4,22.5-.6Zm-68.2,30.2c15,5,34.3,18.6,53.2,37.3,14,13.9,13.9,14.1-3.6,10.6-32.9-6.6-66-19.7-76.1-30.2C2017.4,651.5,2035.6,639.3,2055.8,646.1Zm65.5,64.6c-3.5,10.2-3.4,14.5.9,20.4,8,11.2,8.7,14.7,5.2,25.1-1.1,3.3-1.9,7-1.7,8.2.4,2.8,8.5,7.1,10.5,5.5,2.1-1.8,1.6-2.8-2.2-4.3-1.9-.8-3.5-1.9-3.5-2.4s.9-4.4,2-8.6c2.4-9.5,1.9-12.7-3.8-21.5-5.8-8.9-6.1-11.5-2.5-22.3l3-8.8,7.9,5.6a319.5,319.5,0,0,1,77.9,80.2l7,10.4-2.6,2.1c-1.4,1.2-5.5,4.6-9,7.6a191.678,191.678,0,0,1-31.9,21.1c-56.6,28.5-110.6,9.4-140.3-49.6-4.9-9.7-12-28.9-11.5-31.1.2-.8,22.1-11.5,48.8-23.8s48.6-22.4,48.7-22.5c.1,0-1.2,3.9-2.9,8.7ZM2024.9,759c9.1,28.3,29.5,57.6,49.5,71,26.7,17.9,57.5,21.3,89.9,9.8q25.5-9,50.9-30.1l9.2-7.6,5.1,8.9c13.2,23,22,45.2,26.2,66.1,2,9.9,2.3,14.2,2.3,33.4-.1,24.9-1.4,33.4-8.5,54.6-14.9,45-50,83.6-92.9,102.5a174.3,174.3,0,0,1-124.3,6.4c-12.7-4.1-35.4-15.6-46.3-23.5-36.4-26.2-60.7-64.1-69.7-108.6-2-9.8-2.3-14.3-2.2-32.4,0-18.8.3-22.3,2.7-33.6,11.3-53.3,43.7-95.8,91.6-120.1,6.2-3.2,11.9-5.8,12.5-5.8S2023.3,754.1,2024.9,759Z" transform="translate(-5.2 -79.2)"/><path class="cls-3" d="M2070.5,874.5a25.377,25.377,0,0,0,2.7,4.6c3.5,5.4,3.4,9.9-.5,15.3-2.5,3.5-3.7,4.2-7.8,4.9-22.7,4-36.5,14.5-43.7,33.4-2.1,5.7-2.3,5.8-5.2,5.2-6.2-1.4-18-1-20.3.7-7.7,5.4,6.6,23.2,20.9,25.9,3.1.6,3.8,1.4,6.9,7.8,8.8,18.3,30,30.3,49.9,28.2,21.7-2.3,39.7-17.8,44.6-38.6,4.1-17.8-.7-34.4-14.1-48-5.1-5.1-5.4-5.7-4.4-8.3,2.2-5.8,0-14.7-4.8-18.9-2-1.9-2.1-1.9-2.7,1.7-.8,3.9-3.5,7.2-3.5,4.1,0-3.3-5-10.4-9.3-13.3C2074.1,875.7,2070.5,873.7,2070.5,874.5Zm12.6,16.1a11.426,11.426,0,0,1,.8,6.7c-.6,3-.6,3,2.7,2.3a17.815,17.815,0,0,0,6.2-2.6l2.7-2.1v4.2a26.8,26.8,0,0,1-1.1,7.4c-1.2,3.1-1.1,3.3,5.8,10.1,14.8,14.6,18.7,34.5,10.4,52.8-15.5,34.2-64.4,35.7-82.1,2.5-3.1-5.8-3.2-7.9-.5-7.9.7,0,2.5-1.4,3.9-3.1a10.2,10.2,0,0,0,2.6-7.4c0-6.2-1.7-9.2-6.6-11.5-4.1-2-4.2-2.2-3.3-5.3,3-10.4,12.1-21.8,21.6-26.9,5.6-3.1,15.1-5.8,20.2-5.8,2.8,0,4.3-.9,7.7-4.5a25.008,25.008,0,0,0,5.5-8.5c.7-2.2,1.4-4,1.6-4A11.847,11.847,0,0,1,2083.1,890.6ZM2020.8,944c7.1,2.2,9.7,4.6,9.7,9.1a9.664,9.664,0,0,1-1.9,5c-1.6,2-2.8,2.4-7.3,2.3-8.7-.2-18.7-6.5-22.3-14-1.4-3-1.5-3.8-.4-4.6C2000.7,940.4,2013.2,941.7,2020.8,944Z" transform="translate(-5.2 -79.2)"/><path class="cls-3" d="M2051.1,932.6c-4,4.1-5.1,9.6-2.9,14.2,2.4,4.9,6.4,6.8,10.4,5.2,6-2.5,9.1-10.3,6.5-16.3C2062.5,929.5,2055.8,928,2051.1,932.6Z" transform="translate(-5.2 -79.2)"/><path class="cls-4" d="M195,987.1c-37.4,20.8-68.1,38.3-68.3,38.9-.2.5,4,9,9.2,18.8,13.3,24.9,30.5,60.5,35.9,74.2,7,18,8.8,25.1,9.4,38,.5,10.5.3,12.1-1.9,18.6-3.3,9.5-8.8,17.6-26.2,38.9-31.2,38-40.7,56.9-40.7,81-.1,17.8,5.6,32.9,16.2,43,13.1,12.5,30.8,15.3,55.7,8.9,22.2-5.7,32.3-13.4,77.8-58.8,56.4-56.5,88.7-97.7,98-125,3.6-10.5,4.9-22.8,3.5-32.5-2.9-19.5-10.5-34.4-29.6-57.6-12-14.5-16.4-20.8-24.2-34.5-6.9-12-27.7-53.4-37.8-75.3-3.8-8.1-7.3-14.7-7.9-14.6C263.5,949.1,232.4,966.2,195,987.1Zm72.8-21.9c2.6,5.6,4.6,10.3,4.4,10.4-.9,1-129.4,69.4-130.2,69.4-.5,0-3.1-4-5.7-8.8l-4.7-8.7,64.7-36.2c35.6-19.9,65.2-36.2,65.8-36.2.6-.1,3.2,4.5,5.7,10.1Zm17.8,37c17.9,35.9,29.5,55.7,39,67l3.1,3.7-3.5,8.3c-15.4,35.8-11.7,71,10.8,102.2l5.6,7.9-3.8,5.6c-6.1,9-26,33.5-39.9,49.1-25,28.2-71.9,73.9-87.9,85.7l-5.9,4.5-1.9-2.4c-20.8-26.4-45.5-43.8-74.7-52.4-8.6-2.5-8.6-2.5-4.4-12.9,5.6-13.9,15.2-27.9,38.1-55.9,18-21.9,23.2-31.1,25.4-44.9,3-18.3-5.3-44.8-29.2-92.7-7-14-12.4-25.6-12.1-25.8.4-.1,29.5-15.7,64.7-34.7,35.2-18.9,64.3-34.4,64.7-34.4.5-.1,5.8,9.9,11.9,22.1Zm57.4,90.3c19,28.4,21.5,53.4,8.1,81-2.4,4.9-5.2,10.1-6.3,11.4l-1.9,2.3-5.1-7.3a114.26,114.26,0,0,1-13.9-27.1c-7.2-21.1-5.5-48.2,4.4-70.2l2.6-5.9,3.4,3.9a129.856,129.856,0,0,1,8.7,11.9ZM129.9,1287.1c11.4,3.8,27.3,12,37.7,19.6,7.8,5.5,27.6,25,29.9,29.3,1,1.8.7,2.2-2.4,3.5-10.6,4.5-19,6-33.1,6-13.1,0-14.4-.2-19.7-2.7-11.8-5.5-19.9-16.2-23.8-31.4-3-11.6-2.6-27.4.7-27.4C120,1284,124.8,1285.4,129.9,1287.1Z" transform="translate(-5.2 -79.2)"/><path class="cls-4" d="M1460.6,953.2c-10.7,24.7-34.8,72.8-45.5,90.8a205.281,205.281,0,0,1-14,20.5c-21,25.4-30.4,40.6-34.8,56.1-2.8,10.1-3.1,27.6-.4,37.4,6.6,24.8,34.5,62.9,84.2,115.2,24.3,25.6,55,54.1,67.9,63.3,16.3,11.5,48.2,17.5,64.5,12.1,14.3-4.8,23.2-13.9,29.3-29.9,2.9-7.7,3.1-9,3.2-22.2,0-12-.3-15.1-2.4-21.5-5.4-17.4-14.5-32-37.2-59.7-8-9.8-16.7-20.9-19.3-24.7-13.5-20.2-13.4-37.5.6-73,4.8-12.2,28.2-60.1,40-81.8,2.8-5.4,5-9.9,4.7-10.2-1.1-1.1-137.1-76.6-138-76.6C1462.9,949,1461.6,950.9,1460.6,953.2Zm69.5,37.4c35.1,19.6,64.3,36,64.8,36.5,1,.9-7.4,18-8.8,18.1-.6,0-126.2-67-129.4-69-1-.7-.5-2.6,2.3-8.8,2-4.3,4.1-8.9,4.6-10.2.5-1.2,1.2-2.2,1.7-2.2s29.6,16,64.8,35.6Zm-10.4,24.4,64.5,34.5-13.1,26.5c-22.2,44.9-28.8,63.9-28.9,83.5-.1,9.4.3,12,2.5,18.2,3.3,9.4,10.5,19.9,27.2,40.3,20.6,25,29.8,39.1,35,53.8,1.9,5.3,2.2,7.4,1.3,7.6-23.1,6.5-40.2,15.2-58,29.6-7.1,5.7-18.1,17.2-23.2,24.3l-2.1,2.8-6.2-4.6c-21.4-15.7-75.1-69.6-104.6-105-10.3-12.4-26.6-33.8-26.6-35,0-.4,2.5-4.1,5.6-8.3,21.1-29,25.5-64.2,12.2-98.2a96.785,96.785,0,0,0-4.3-9.6c-1.2-1.9-1-2.6,2.7-7,10.3-12.3,25.5-38.7,41.3-71.7,4.4-9.2,8.5-16.6,9.1-16.4.7.1,30.2,15.7,65.6,34.7Zm-116.3,77.7a93.683,93.683,0,0,1,4.8,36.2,87.253,87.253,0,0,1-9.1,35.6c-4,8.2-13.3,22.4-14.7,22.5-1.2,0-9.9-16.9-12.6-24.5-2.5-7.3-2.8-9.3-2.8-22,0-12,.3-15,2.3-20.9,4.2-12.5,11.1-24.7,21.2-37.5l4.3-5.4,1.9,3.6a132.469,132.469,0,0,1,4.7,12.4Zm207.7,196.9c1.5,12.1-2.1,28.3-8.6,38.4a39.6,39.6,0,0,1-16.9,14.8c-4.8,2.2-7.3,2.7-17.6,3s-13.4,0-21.5-2.1c-5.2-1.4-11.2-3.2-13.3-4.1-4.5-1.8-4.6-1.7,3.9-11.7,14.7-17.4,38.1-33.1,61.2-40.9,12-4.1,11.9-4.1,12.8,2.6Z" transform="translate(-5.2 -79.2)"/><path class="cls-5" d="M723.8,1410.4c-13,4.2-23.2,17.3-26.8,34.1-4.7,22.3,2.7,43.3,18.2,51.7,12.9,7,30.9,5.3,41.5-4.1,8.7-7.6,13.1-19,13-33.5-.2-26.6-15.8-47.8-36-49.2A30.806,30.806,0,0,0,723.8,1410.4Zm19.4,6.1c21.8,10.9,29.7,50.7,13.8,69.3-9.5,11.1-29.2,13.4-42,5-9.5-6.3-14.5-17.7-14.5-33.2,0-14.3,3.6-25.3,11.4-34.3C719.8,1414.2,732.8,1411.3,743.2,1416.5Z" transform="translate(-5.2 -79.2)"/><path class="cls-5" d="M2182.5,1410.3c-18.4,5.2-31.1,27.5-29.7,52.1.8,15,6.4,26,16.4,32.3,6.9,4.4,11.8,5.7,20.8,5.7,6.6,0,9.1-.5,14-2.8,14.5-6.6,22.5-20.8,22.5-40.1,0-15-4.5-27.5-13.1-37C2204.8,1411.2,2193,1407.3,2182.5,1410.3Zm17.6,5.6c19,8.6,28,39.5,18,61.6-5,11-14,17.4-25.6,18.3-22,1.5-35.5-12.5-35.4-36.8,0-20.4,10.1-38.3,24.7-43.7C2186.7,1413.5,2195.4,1413.8,2200.1,1415.9Z" transform="translate(-5.2 -79.2)"/><path class="cls-5" d="M800.7,1424.5c-12.3,5.3-21.3,20.8-21.3,36.8,0,7.9,1.3,12.8,4.9,17.7,3.4,4.6,4.7,5.6,10.7,8.5,9.1,4.5,22.2,2.8,29.4-3.8,9.1-8.5,13.1-26.9,8.7-40.8-2.3-7.3-8-14.7-13.5-17.6C814.5,1422.6,805.9,1422.2,800.7,1424.5ZM819,1430c12.7,7.8,15.4,34,5,47.6-3.2,4.1-11.4,8.4-16.3,8.4-11.1,0-20.8-7.1-23.2-16.9-1.6-6.6-.8-14.9,2.1-22.5,2.6-7.1,10.8-16.1,16.4-18.2A19.885,19.885,0,0,1,819,1430Z" transform="translate(-5.2 -79.2)"/><path class="cls-5" d="M2101.9,1426c-10,5.7-15,17.1-14.2,32.5,1,19.3,11.6,31.5,27.4,31.5,19.1,0,30.9-14.8,27.6-34.6C2138.6,1430.9,2118.6,1416.4,2101.9,1426Zm21.1,4.5c5,2.9,8.6,7.4,12.3,15.3,2.3,4.9,2.7,7,2.7,15.3,0,8.9-.2,9.9-3,14.4-4.2,6.7-10.6,10-19.5,10-10.2-.1-17.1-5.1-21.2-15.4-3.1-8.1-3.1-21.7,0-28.6C2100.4,1428.2,2111.7,1423.8,2123,1430.5Z" transform="translate(-5.2 -79.2)"/><path class="cls-5" d="M862.8,1441.5c-12.9,6.5-21.5,23.7-18.9,37.8,1.1,5.7,6,12.1,11.8,15.3,4.3,2.3,6.5,2.9,11.9,2.9,5.6,0,7.3-.5,11.5-3,9.6-5.9,15-17.9,14.2-31.4-.5-8.6-2.7-13.8-8-18.8C879,1438.3,871.2,1437.3,862.8,1441.5Zm14.7,3c6.7,1.9,11.4,10,11.4,20,0,16.9-8.6,28.5-21.2,28.5-9,0-16.9-5.6-19.2-13.8-1.4-5.2-1.3-7.1,1-14.4,3.3-10.6,10.9-18.9,19.4-20.8C872,1443.2,873,1443.3,877.5,1444.5Z" transform="translate(-5.2 -79.2)"/><path class="cls-5" d="M2041.9,1440.9c-14.9,6.8-17.8,32-5.4,47.9,12.3,15.7,38.2,9.4,41.9-10.1,1.8-10.1-2.9-23.5-11.1-31.4C2059.2,1439.5,2050.1,1437.2,2041.9,1440.9Zm16.7,5.2c12.7,6.3,19.8,27.9,12.7,38.6-6.2,9.5-21,11.2-29.1,3.5-5.3-5-8-11.8-8.5-21.4-.4-7.4-.1-9.3,1.7-13.1,2.6-5.4,4.8-7.5,9.8-9.2C2049.5,1443,2053.3,1443.5,2058.6,1446.1Z" transform="translate(-5.2 -79.2)"/><path class="cls-5" d="M912.8,1472.4c-18.4,8.6-25.4,33.4-12.6,44.7,10.1,8.8,23.6,8.1,32.3-1.7,7.2-8.2,10.6-21.6,8.1-31.2-1.4-5.1-6.4-11-10.8-12.8C924.9,1469.3,918.6,1469.7,912.8,1472.4Zm17.7,4.5c7.6,5.5,8.8,17.3,2.9,28.8-6,11.7-15.6,16-25.4,11.3-12.6-6.1-13.4-21.2-1.8-34.1C913.8,1474.6,923.8,1472.1,930.5,1476.9Z" transform="translate(-5.2 -79.2)"/><path class="cls-5" d="M1991,1472.2a21.309,21.309,0,0,0-9.5,12.7c-3.4,12.2,4,30,14.9,35.8,5.5,2.9,13.8,3.1,19.7.4,5-2.3,11.2-9.3,12-13.8,1.8-9.8-1.8-20.6-9.6-28.3C2010,1470.4,1998.8,1467.7,1991,1472.2Zm17.5,4.6c8.7,4.1,15.5,15,15.5,24.8,0,5.1-.4,6.6-2.9,9.8-3.8,5-10.4,8-16.3,7.3-10.8-1.2-19.3-13.2-19.3-27.1,0-8,2.3-12.4,8.1-15.4,4.8-2.5,8.6-2.4,14.9.6Z" transform="translate(-5.2 -79.2)"/><path class="cls-5" d="M786,1497.6c-28,6.2-44.9,28.5-48.5,64.1-3.2,30.8,4.6,51.6,30.9,82.8,14.5,17.1,16.3,21.2,16.2,36.6,0,18-3.5,28.1-20,58.8-11.7,21.7-15.5,32.5-15.5,44.6-.1,8,.2,9.7,2.8,15,4.4,8.9,16.3,20.5,25.7,25,17.2,8.1,35,6.4,57.8-5.6,46.6-24.4,79.4-73.8,96.6-145.4,11.5-47.5,10.9-88.2-1.5-111.3-16.7-30.9-52.4-55.1-93.7-63.3C822.3,1496.1,796,1495.4,786,1497.6Zm31.1,3.4c49.2,3.8,93.5,30.1,110.4,65.5,5.7,11.8,7.2,20.1,7.8,40.5.7,29.1-3.9,58.1-14.4,90.5q-29.1,89.25-91.8,119.1c-19.8,9.3-37.5,9.9-52.7,1.8-7-3.8-17.2-14.2-20.5-21-2.4-5-2.6-6.2-2.2-14.7.8-13.5,1.2-14.6,22-54.8,10.1-19.6,13.8-31.9,13.8-47,0-9.4-1.8-17-5.6-23.6-1.3-2.3-7.5-10.3-13.8-17.9-16.4-19.7-25.2-35.7-27.5-50.5-3.5-21.1.7-47,10-62.5,9.2-15.2,23.1-23.6,41.9-25.3,4.7-.5,9-.9,9.5-.9C804.6,1500.1,810.4,1500.5,817.1,1501Z" transform="translate(-5.2 -79.2)"/><path class="cls-5" d="M2096.3,1497.1c-30.4,3.5-61.5,17.8-83.2,38-14.2,13.3-23.6,28-27.8,43.8-3,11.1-3.7,41.7-1.3,60.2,8.2,64.7,35.6,125.8,70.5,157,26.2,23.5,54.4,35.8,75.2,32.9,16.5-2.4,31.7-13.1,40-28.4,3.1-5.8,3.3-6.7,3.3-16.1,0-13.2-1.6-17.7-17.5-49-16.3-32.1-17.5-35.9-17.5-53.5,0-13.2.1-13.7,3.2-20,1.8-3.6,6.7-10.6,10.9-15.5,17.2-20.1,27.1-36.5,31.1-51.5,2.4-9.2,2.4-33.4,0-45-6.3-29.4-23.1-47.8-48-52.5C2126.6,1495.9,2108.8,1495.7,2096.3,1497.1Zm41,5.5c21.6,4.8,36.7,22.8,41.7,49.9,2.5,13.1,1.7,36.4-1.5,45.5-5.2,14.8-12.6,26.6-29.3,46.3-11.7,13.8-15.7,23.1-15.7,36.5,0,17.3,4.6,29.7,25.5,69.2,11.2,21.1,13.8,36.9,8.1,48-4.3,8.3-13.9,17.3-23.3,21.8-7.7,3.6-8,3.7-19.8,3.7-10,0-13.2-.4-19-2.4-27.7-9.3-57-34.1-75.5-64-26.6-42.8-43.4-104-41.7-151.6.7-19,2.4-27.1,7.8-38.5,16.8-35.3,60.9-62.2,108.4-65.9C2115.1,1500.1,2128.8,1500.7,2137.3,1502.6Z" transform="translate(-5.2 -79.2)"/><path class="cls-5" d="M949.8,1514.9c-11.6,5.3-19.6,20-17.1,31.4,2.6,12.3,17.5,19.4,28.7,13.7,13.8-7,19.8-29.8,10.8-41.1C967.7,1513.1,957.7,1511.4,949.8,1514.9Zm14.5,3.5c6.6,3.4,9.3,10.9,7.3,19.9-3.2,14.4-14,22.3-24.7,18.2-9-3.4-12.8-13.4-8.6-22.7C943.7,1521.5,956.1,1514.2,964.3,1518.4Z" transform="translate(-5.2 -79.2)"/><path class="cls-5" d="M1955,1514.9a17.053,17.053,0,0,0-8.1,9.8c-4.2,11.9,2.6,29.5,13.6,35,11.2,5.7,25.5-.5,29.1-12.8,3.4-11-5.8-27.1-18.4-32.4C1966.2,1512.4,1958.7,1512.6,1955,1514.9Zm15.1,4c12.3,5.6,19.2,22,13.1,31.2-3,4.6-10.1,8.2-15,7.5-9.9-1.2-17.7-12.1-17.7-24.5,0-7.8,2.3-12.5,7.3-14.6C1962.1,1516.6,1965.2,1516.7,1970.1,1518.9Z" transform="translate(-5.2 -79.2)"/><path class="cls-6" d="M119,1591c-41.2,5.5-75.1,9.9-75.2,9.9-.1.1.1,10.3.4,22.8.3,13.3.1,29.7-.6,39.3-1,14.1-1.8,20.1-4.8,32.5-.4,1.7,2.9,3.8,23.4,14.9,13.1,7,24.2,13.2,24.6,13.6.5.4-13.4,49.7-30.7,109.5-17.4,59.8-31.5,108.9-31.4,109,.2.1,3.5,1,7.3,2a104.628,104.628,0,0,1,16.5,6.6c21.8,11.1,36.2,29.4,42.6,54.4,2.1,8,2.7,13.1,3,25.5.4,12.3.8,15.8,2.1,17.2,2.7,3,20.2,11.4,31.5,15.2,18.1,6,43.8,10.6,62.1,10.9l9.7.2,2.9-8.1c8.5-24.7,26.2-44.4,47.5-53.2,12.5-5.1,19.2-6.4,36.1-6.8l16-.4,1.1-4.3c.6-2.3,11.1-50.6,23.4-107.2,12.3-56.7,22.6-103.3,22.9-103.6s13.4.9,29.1,2.7,28.8,3,29.1,2.6a86.582,86.582,0,0,0,3.3-8.7c6.6-19,20-47.3,33.8-71.3,3.9-6.7,6.9-12.4,6.7-12.6-.5-.5-123.2-85-124.7-86-.6-.4-2.4,1.9-4.4,5.6-4.6,8.7-18.4,22.6-26.5,26.7-17.6,8.8-34.8,7.8-57.8-3.4-19-9.2-31.1-21.6-35.6-36.6-1.7-5.8-2.1-8.9-1.7-17.9l.3-11-3.5.1C195.6,1581.2,160.3,1585.6,119,1591Zm77,4.8c.1,16.2,5.8,28.8,18.4,40.4,10.6,9.8,28.6,19.2,43,22.4,9.9,2.2,25.4,1.5,33.2-1.5,12.5-4.8,25.5-15.6,32.9-27.4,1.9-3.1,3.9-5.6,4.3-5.7.5,0,2.5,1.2,4.5,2.7s3.8,2.8,4,2.9c.8.5-5,10.4-9.4,16.3-12.3,16.4-33.6,27.1-53.9,27.1-15,0-35.8-5.6-49.5-13.3-9.6-5.4-22.3-17.8-27.8-27.2-6.7-11.5-11.2-27.5-11.2-40.2,0-5.6.1-5.7,8.5-6.1l3-.2Zm-15.5-1.8a80.128,80.128,0,0,0,1.6,13.8c6.1,29.8,25.8,52.4,54.7,62.7,24.8,8.9,48.5,8.7,67.5-.6,12.3-6,25.7-19,32.9-31.9,1.5-2.8,3.3-4.9,3.9-4.8.5.2,21.8,14.7,47.2,32.2l46.2,31.9-1.7,2.6c-18.3,27.9-33.3,57.2-40.8,79.4a104.422,104.422,0,0,1-3.8,10.4c-.3.3-9.8-.5-21.1-1.8s-20.8-2-21.1-1.7-10.3,45.3-22.1,99.9c-11.8,54.7-21.7,99.8-21.8,100.4-.2.7-4.2.7-11.6.1-46.1-3.8-81.9,17.6-99.6,59.4a140.8,140.8,0,0,0-5.4,15.8,70.566,70.566,0,0,1-2.3,7.8c-.6.7-23.9-2.8-34.3-5.2a208.506,208.506,0,0,1-32.2-9.9l-4.2-1.7.7-5.2c.5-2.8.8-13.2.7-23.1,0-15.1-.4-19.4-2.2-26.8-5.1-20.3-11.7-32.5-25.1-45.7-13.2-13-27.1-20.9-45.6-25.8-6-1.5-6.5-1.9-6-4,.3-1.2,13.4-46.3,29-100.2,15.7-53.9,28.5-98.6,28.5-99.2,0-.7-8.4-5.7-18.6-11.2-16.4-8.7-18.5-10.1-18.1-12,.3-1.1,1.6-6.4,3-11.6a162.826,162.826,0,0,0,3.6-18.5c1.4-11.6,1.4-42.5,0-55.5-.6-5.6-.9-10.4-.6-10.6.6-.6,110.4-15.1,115.5-15.3l3.2-.1ZM56.8,1606.2c.3,1.3,1.1,8.4,1.8,15.8,1.4,15.9.7,40.6-1.6,53.5-1.4,8.4-5.4,23.5-6.1,23.5-.2,0-1.9-.8-3.9-1.7-3.1-1.5-3.5-2.1-3-4.3,3.1-11.6,3.7-19.3,4.1-52,.3-19,.7-35.1.9-35.8.3-.6,2-1.2,3.9-1.2C55.6,1604,56.4,1604.5,56.8,1606.2Zm385.6,96.6,3.4,2.8-5.8,9.9c-12.2,21.2-28.7,56.5-34.9,74.8-.5,1.6-1.3,1.8-5.9,1.2a31.59,31.59,0,0,1-5.6-1.1c-1.3-1.2,8.8-27.3,16.5-42.5,7.4-15,27-47.9,28.4-47.9a20.076,20.076,0,0,1,3.9,2.8Zm-399,228.7c11.5,3.7,18.5,7,27.7,13,24.1,16.1,37,41.1,39,76,.6,8.9-.8,28-2,29.2-.2.3-2.5-.7-5-2.2l-4.6-2.7V2033c0-25.9-6.6-46.6-20.3-63.8-9.3-11.8-26.5-23.4-41.2-27.8-3.3-1-6.2-1.9-6.4-2-.9-.7,2.3-10.4,3.4-10.4a67.384,67.384,0,0,1,9.4,2.5ZM300,1992.2c.4.3.3,2.6-.2,5l-.9,4.3-9.4.1c-22.6.4-35.6,3.6-51.4,12.7-17.1,9.9-34.8,32.6-40.7,52.5-1.2,4.3-1.3,4.3-4.8,3.7a18.193,18.193,0,0,1-4-1.1c-.3-.3.5-3.9,1.8-8.2,9.4-32,29.5-55.3,56-65,11.5-4.2,18.4-5.1,36.3-4.9,9.1.1,16.9.5,17.3.9Z" transform="translate(-5.2 -79.2)"/><path class="cls-6" d="M1527,1593.7c0,10.9-.3,13.7-2.3,18.8-5.3,14-17.3,25.6-35.7,34.5-22,10.7-38.7,11.6-56,3.1-11.2-5.6-19.7-13.9-27.8-27.3l-3.4-5.7-62.6,43.2c-34.5,23.8-62.7,43.5-62.7,43.8s3.2,6.1,7.1,12.9c13.4,23.4,27.3,52.8,34,72a55.572,55.572,0,0,0,2.8,7.2c.3.3,13.4-.8,29.1-2.6s28.7-3.2,28.9-3c.3.3,40.6,184.6,46.1,210.9l1,5,16.3.1c14.4.1,17.2.4,25,2.8,29.2,8.8,50.2,29.6,59.7,59.6l1.8,5.5,9.8-.2c31.8-.6,72.1-11.4,90.8-24.2l4.6-3.2v-11.7c0-37.6,13.6-65,40.3-81.1a94.175,94.175,0,0,1,24.6-10.3c3.9-.9,5-1.5,4.6-2.7-8.4-27.8-62.4-215.8-62.1-216.5.2-.6,11.2-7,24.5-14.1,21.1-11.4,24.1-13.3,23.6-15-4.1-14-5.9-37.3-5.3-69.6l.4-24.8-2.6-.5c-3.7-.8-150.5-19.6-152.7-19.6C1527.2,1581,1527,1582.1,1527,1593.7Zm12.9-7,3.9.6-.6,8.3c-.9,12-3.2,20.5-8.9,32.3-4.2,8.8-6.2,11.6-13.1,18.6-9.5,9.5-18.6,15.2-31.9,20-35.5,12.6-67.1,5.8-86.9-18.9-4.4-5.3-11.5-17.4-10.7-18,6.1-4.6,7.6-5.6,8.4-5.6.5,0,2.3,2.4,3.9,5.2,1.7,2.9,6.4,8.6,10.5,12.7,19.3,19.5,43.3,23.3,71.4,11.5,30.3-12.8,45.9-32.5,46-58.1C1532,1584.9,1531.7,1585.3,1539.9,1586.7Zm68.2,8.8c31.7,4.1,57.9,7.6,58.1,7.9.3.2-.1,4.8-.8,10.3-.6,5.4-1.2,18.6-1.2,29.3,0,21.4,1.7,35.1,5.9,49.7,2,6.9,2.2,8.8,1.2,9.5-.7.4-9.3,5.1-19,10.4-17.5,9.4-17.7,9.5-16.8,12.2,1.3,3.8,58,199.1,58,199.7,0,.3-.7.5-1.6.5s-6.4,1.6-12.3,3.6c-35.8,11.9-58.2,38-64.7,75.4-1.2,7.4-1.5,13.4-1.1,27,.3,9.6.8,18.4,1.2,19.6.6,1.8,0,2.4-3.7,3.9a229,229,0,0,1-54.8,13.9c-6.3.8-11.5,1.4-11.7,1.2-.1-.1-1.4-4.2-2.8-9.2-8.7-29.9-26.3-52.7-50-64.6-13.8-7-33.3-10.5-52.2-9.4-6.2.3-11.9.7-12.5.9-.8.1-8.4-32.8-23-100.3-12-55.2-22.1-100.6-22.4-100.9s-9.6.5-20.7,1.7c-23.8,2.7-22.7,2.6-22.7.6,0-2.8-5.9-19.1-11.4-31.4a425.255,425.255,0,0,0-27.3-49.4c-5.2-8.1-6.2-10.1-5.1-11.1,2.3-2.2,91.8-63.5,92.5-63.5.5,0,1.9,2.1,3.3,4.7a76.156,76.156,0,0,0,47.4,37.3c26.3,6.6,62.4-3.1,83.5-22.5,15.2-14,26.1-38.6,26.1-59.1,0-4.1.4-5.4,1.5-5.4C1549.8,1588,1576.4,1591.4,1608.1,1595.5Zm71.5,44.5c.6,33.4,1.1,39.8,4.2,54.2.1.6-1.3,2-3.1,3.1-4.3,2.5-4.4,2.4-7.6-11.3-4.5-19-5.8-44.1-3.6-67.1,1.5-15.3,1.4-15.1,5.8-14.7l3.7.3Zm-382,72.3c10.9,17.5,19.2,32.7,25.3,46.4,5.2,11.5,12.2,31,11.5,31.7a31.59,31.59,0,0,1-5.6,1.1c-4.6.6-5.4.4-5.9-1.2-6.9-19.4-21.9-51.7-33.7-72.5-3.7-6.5-6.7-12.1-6.7-12.5,0-.8,5.9-5.1,7-5.2C1289.8,1700,1293.4,1705.5,1297.6,1712.3Zm398.8,221.8c.7,2.7,1.2,5.1,1,5.3-.2.1-3.1,1-6.4,2-8.9,2.7-22.2,9.9-29.7,16.1-9.3,7.6-16.1,16.4-21.8,28-7,14.3-9.1,23.5-9.7,43.1l-.5,16-4.5,2.8c-2.4,1.6-4.6,2.6-4.9,2.3-1-.9-2.3-13.9-2.4-22.2,0-17.1,3.8-35.9,10.1-49.4,6.6-14.3,20.3-29,34.4-37,7.2-4.1,28-12.1,31.6-12.1,1,0,2,1.7,2.8,5.1Zm-220.6,60.3c14.5,4.4,23.6,9.6,34.6,20,8.4,8.1,14.1,16.2,20,28.7,4.6,9.6,10,25.4,9,26.3a18.426,18.426,0,0,1-3.9,1.1l-3.5.6-3.4-9c-8.2-22.1-24.7-41-44.6-50.8-13.3-6.6-25.9-9.4-43.1-9.5-6.3,0-11.6-.3-11.9-.7a39.106,39.106,0,0,1-1.1-4.9c-.8-5.2-1-5.1,21.6-4.8,15.6.3,18.5.6,26.3,3Z" transform="translate(-5.2 -79.2)"/></svg>