<?xml version="1.0" encoding="utf-8"?>
<!-- Generator: Adobe Illustrator 25.0.0, SVG Export Plug-In . SVG Version: 6.00 Build 0)  -->
<svg version="1.1" id="Layer_9" xmlns="http://www.w3.org/2000/svg" xmlns:xlink="http://www.w3.org/1999/xlink" x="0px" y="0px"
	 viewBox="0 0 1400 980" style="enable-background:new 0 0 1400 980;" xml:space="preserve">
<style type="text/css">
	.st0{fill:#FFFFFF;stroke:#000000;stroke-width:2;stroke-linecap:round;stroke-miterlimit:10;}
	.st1{fill:#FFFFFF;stroke:#000000;stroke-width:2;stroke-miterlimit:10;}
	.st2{opacity:0.16;}
</style>
<g>
	<g>
		<rect x="373.67" y="157.71" class="st0" width="652.67" height="652.67"/>
		<g>
			<g>
				<rect x="443.63" y="65.54" class="st1" width="27.72" height="127.49"/>
				<rect x="512.92" y="65.54" class="st1" width="27.72" height="127.49"/>
				<rect x="582.21" y="65.54" class="st1" width="27.72" height="127.49"/>
				<rect x="651.5" y="65.54" class="st1" width="27.72" height="127.49"/>
				<rect x="720.79" y="65.54" class="st1" width="27.72" height="127.49"/>
				<rect x="790.08" y="65.54" class="st1" width="27.72" height="127.49"/>
				<rect x="859.36" y="65.54" class="st1" width="27.72" height="127.49"/>
				<rect x="928.65" y="65.54" class="st1" width="27.72" height="127.49"/>
			</g>
			<g>
				<rect x="443.63" y="775.06" class="st1" width="27.72" height="127.49"/>
				<rect x="512.92" y="775.06" class="st1" width="27.72" height="127.49"/>
				<rect x="582.21" y="775.06" class="st1" width="27.72" height="127.49"/>
				<rect x="651.5" y="775.06" class="st1" width="27.72" height="127.49"/>
				<rect x="720.79" y="775.06" class="st1" width="27.72" height="127.49"/>
				<rect x="790.08" y="775.06" class="st1" width="27.72" height="127.49"/>
				<rect x="859.36" y="775.06" class="st1" width="27.72" height="127.49"/>
				<rect x="928.65" y="775.06" class="st1" width="27.72" height="127.49"/>
			</g>
		</g>
		<g>
			<g>
				
					<rect x="331.38" y="662.81" transform="matrix(4.489126e-11 -1 1 4.489126e-11 -381.3153 1071.7986)" class="st1" width="27.72" height="127.49"/>
				
					<rect x="331.38" y="593.52" transform="matrix(4.472695e-11 -1 1 4.472695e-11 -312.0266 1002.5098)" class="st1" width="27.72" height="127.49"/>
				
					<rect x="331.38" y="524.23" transform="matrix(4.472695e-11 -1 1 4.472695e-11 -242.7379 933.2211)" class="st1" width="27.72" height="127.49"/>
				
					<rect x="331.38" y="454.95" transform="matrix(4.558049e-11 -1 1 4.558049e-11 -173.4491 863.9323)" class="st1" width="27.72" height="127.49"/>
				
					<rect x="331.38" y="385.66" transform="matrix(4.472695e-11 -1 1 4.472695e-11 -104.1604 794.6436)" class="st1" width="27.72" height="127.49"/>
				
					<rect x="331.38" y="316.37" transform="matrix(4.472695e-11 -1 1 4.472695e-11 -34.8716 725.3549)" class="st1" width="27.72" height="127.49"/>
				
					<rect x="331.38" y="247.08" transform="matrix(4.489126e-11 -1 1 4.489126e-11 34.4171 656.0661)" class="st1" width="27.72" height="127.49"/>
				
					<rect x="331.38" y="177.79" transform="matrix(4.476070e-11 -1 1 4.476070e-11 103.7059 586.7773)" class="st1" width="27.72" height="127.49"/>
			</g>
			<g>
				
					<rect x="1040.9" y="662.81" transform="matrix(4.397289e-11 -1 1 4.397289e-11 328.2014 1781.3153)" class="st1" width="27.72" height="127.49"/>
				
					<rect x="1040.9" y="593.52" transform="matrix(4.561335e-11 -1 1 4.561335e-11 397.4902 1712.0266)" class="st1" width="27.72" height="127.49"/>
				
					<rect x="1040.9" y="524.23" transform="matrix(4.476070e-11 -1 1 4.476070e-11 466.7789 1642.7378)" class="st1" width="27.72" height="127.49"/>
				
					<rect x="1040.9" y="454.95" transform="matrix(4.469498e-11 -1 1 4.469498e-11 536.0676 1573.4491)" class="st1" width="27.72" height="127.49"/>
				
					<rect x="1040.9" y="385.66" transform="matrix(4.489126e-11 -1 1 4.489126e-11 605.3564 1504.1604)" class="st1" width="27.72" height="127.49"/>
				
					<rect x="1040.9" y="316.37" transform="matrix(4.574480e-11 -1 1 4.574480e-11 674.6451 1434.8716)" class="st1" width="27.72" height="127.49"/>
				
					<rect x="1040.9" y="247.08" transform="matrix(4.476070e-11 -1 1 4.476070e-11 743.9339 1365.5829)" class="st1" width="27.72" height="127.49"/>
				
					<rect x="1040.9" y="177.79" transform="matrix(4.489126e-11 -1 1 4.489126e-11 813.2227 1296.2941)" class="st1" width="27.72" height="127.49"/>
			</g>
		</g>
		<g class="st2">
			<g>
				<rect x="443.63" y="65.54" class="st1" width="27.72" height="127.49"/>
				<rect x="512.92" y="65.54" class="st1" width="27.72" height="127.49"/>
				<rect x="582.21" y="65.54" class="st1" width="27.72" height="127.49"/>
				<rect x="651.5" y="65.54" class="st1" width="27.72" height="127.49"/>
				<rect x="720.79" y="65.54" class="st1" width="27.72" height="127.49"/>
				<rect x="790.08" y="65.54" class="st1" width="27.72" height="127.49"/>
				<rect x="859.36" y="65.54" class="st1" width="27.72" height="127.49"/>
				<rect x="928.65" y="65.54" class="st1" width="27.72" height="127.49"/>
			</g>
			<g>
				<rect x="443.63" y="775.06" class="st1" width="27.72" height="127.49"/>
				<rect x="512.92" y="775.06" class="st1" width="27.72" height="127.49"/>
				<rect x="582.21" y="775.06" class="st1" width="27.72" height="127.49"/>
				<rect x="651.5" y="775.06" class="st1" width="27.72" height="127.49"/>
				<rect x="720.79" y="775.06" class="st1" width="27.72" height="127.49"/>
				<rect x="790.08" y="775.06" class="st1" width="27.72" height="127.49"/>
				<rect x="859.36" y="775.06" class="st1" width="27.72" height="127.49"/>
				<rect x="928.65" y="775.06" class="st1" width="27.72" height="127.49"/>
			</g>
		</g>
		<g class="st2">
			<g>
				
					<rect x="331.38" y="662.81" transform="matrix(4.489126e-11 -1 1 4.489126e-11 -381.3153 1071.7986)" class="st1" width="27.72" height="127.49"/>
				
					<rect x="331.38" y="593.52" transform="matrix(4.472695e-11 -1 1 4.472695e-11 -312.0266 1002.5098)" class="st1" width="27.72" height="127.49"/>
				
					<rect x="331.38" y="524.23" transform="matrix(4.472695e-11 -1 1 4.472695e-11 -242.7379 933.2211)" class="st1" width="27.72" height="127.49"/>
				
					<rect x="331.38" y="454.95" transform="matrix(4.558049e-11 -1 1 4.558049e-11 -173.4491 863.9323)" class="st1" width="27.72" height="127.49"/>
				
					<rect x="331.38" y="385.66" transform="matrix(4.472695e-11 -1 1 4.472695e-11 -104.1604 794.6436)" class="st1" width="27.72" height="127.49"/>
				
					<rect x="331.38" y="316.37" transform="matrix(4.472695e-11 -1 1 4.472695e-11 -34.8716 725.3549)" class="st1" width="27.72" height="127.49"/>
				
					<rect x="331.38" y="247.08" transform="matrix(4.489126e-11 -1 1 4.489126e-11 34.4171 656.0661)" class="st1" width="27.72" height="127.49"/>
				
					<rect x="331.38" y="177.79" transform="matrix(4.476070e-11 -1 1 4.476070e-11 103.7059 586.7773)" class="st1" width="27.72" height="127.49"/>
			</g>
			<g>
				
					<rect x="1040.9" y="662.81" transform="matrix(4.397289e-11 -1 1 4.397289e-11 328.2014 1781.3153)" class="st1" width="27.72" height="127.49"/>
				
					<rect x="1040.9" y="593.52" transform="matrix(4.561335e-11 -1 1 4.561335e-11 397.4902 1712.0266)" class="st1" width="27.72" height="127.49"/>
				
					<rect x="1040.9" y="524.23" transform="matrix(4.476070e-11 -1 1 4.476070e-11 466.7789 1642.7378)" class="st1" width="27.72" height="127.49"/>
				
					<rect x="1040.9" y="454.95" transform="matrix(4.469498e-11 -1 1 4.469498e-11 536.0676 1573.4491)" class="st1" width="27.72" height="127.49"/>
				
					<rect x="1040.9" y="385.66" transform="matrix(4.489126e-11 -1 1 4.489126e-11 605.3564 1504.1604)" class="st1" width="27.72" height="127.49"/>
				
					<rect x="1040.9" y="316.37" transform="matrix(4.574480e-11 -1 1 4.574480e-11 674.6451 1434.8716)" class="st1" width="27.72" height="127.49"/>
				
					<rect x="1040.9" y="247.08" transform="matrix(4.476070e-11 -1 1 4.476070e-11 743.9339 1365.5829)" class="st1" width="27.72" height="127.49"/>
				
					<rect x="1040.9" y="177.79" transform="matrix(4.489126e-11 -1 1 4.489126e-11 813.2227 1296.2941)" class="st1" width="27.72" height="127.49"/>
			</g>
		</g>
		<g>
			<path class="st1" d="M715.47,453.1c-2.57-0.69-6.28-1.03-11.13-1.03h-20.99v30.43h21.22c7.13,0,12.21-1.33,15.24-4
				c3.03-2.67,4.55-6.52,4.55-11.55c0-3.35-0.84-6.33-2.52-8.92C720.17,455.43,718.05,453.79,715.47,453.1z"/>
			<path class="st1" d="M473.44,257.48v453.13h453.13V257.48H473.44z M602.65,509.1c4.92,5.87,11.59,8.81,20.02,8.81
				c6.56,0,11.86-1.6,15.9-4.8c4.04-3.2,6.33-7.78,6.86-13.73h11.44c-0.8,8.92-4.31,15.83-10.52,20.71
				c-6.22,4.88-14.07,7.32-23.57,7.32c-11.86,0-21.33-3.9-28.4-11.7c-7.07-7.8-10.61-18.35-10.61-31.66s3.54-23.86,10.61-31.66
				c7.07-7.8,16.54-11.7,28.4-11.7c9.11,0,16.87,2.46,23.28,7.38s10.01,11.4,10.81,19.45h-11.44c-0.46-5.3-2.76-9.51-6.89-12.64
				c-4.14-3.13-9.35-4.69-15.64-4.69c-8.5,0-15.24,2.93-20.19,8.78c-4.96,5.85-7.44,14.21-7.44,25.08
				C595.27,494.88,597.73,503.23,602.65,509.1z M727.8,485.88c-5.38,4.39-13.16,6.58-23.34,6.58h-21.11v33.52h-11.1v-83.85h31.29
				c6.86,0,12.61,0.64,17.25,1.92c4.63,1.28,8.3,4.04,11.01,8.29c2.71,4.25,4.06,9.01,4.06,14.27
				C735.86,475.07,733.17,481.49,727.8,485.88z M816.23,490.62c0,10.14-1.21,17.62-3.63,22.42c-2.42,4.8-6.07,8.4-10.95,10.78
				c-4.88,2.38-11,3.58-18.36,3.58c-9.72,0-17-1.89-21.82-5.66c-4.82-3.77-7.87-8.22-9.15-13.33c-1.28-5.11-1.92-11.04-1.92-17.79
				v-48.5h11.1v48.33c0,11.02,1.85,18.27,5.55,21.74s9.11,5.2,16.24,5.2c7.13,0,12.55-1.73,16.24-5.2
				c3.7-3.47,5.55-10.72,5.55-21.74v-48.33h11.15V490.62z"/>
		</g>
		<path class="st1" d="M981.99,202.06v563.98H418.01V202.06H981.99 M1026.33,157.71H373.67v652.67h652.67V157.71L1026.33,157.71z"/>
	</g>
</g>
</svg>
